# xmcd
#
# Track frame offsets: 
#        150
#        17265
#        36173
#        51520
#        70852
#        98100
#        114815
#        134785
#        154893
#        169590
#
# Disc length: 2638 seconds
#
# Revision: 9
# Processed by: cddbd v1.5.2PL0 Copyright (c) Steve Scherf et al.
# Submitted via: ExactAudioCopyFreeDBPlugin 1.0
#
DISCID=7f0a4c0a
DTITLE=ACCEPT - RESTLESS AND WILD
DYEAR=1983
DGENRE=Heavy Metal
TTITLE0=Fast As A Shark
TTITLE1=Restless And Wild
TTITLE2=Ahead Of The Pack
TTITLE3=Shake Your Heads
TTITLE4=Neon Nights
TTITLE5=Get Ready
TTITLE6=Demon Night
TTITLE7=Flash Rockin' Man
TTITLE8=Don't Go Stealing My Soul Away
TTITLE9=Princess Of The Dawn
EXTD=(c)1982\nGermany YEAR: 1982
EXTT0=
EXTT1=
EXTT2=
EXTT3=
EXTT4=
EXTT5=
EXTT6=
EXTT7=
EXTT8=
EXTT9=
PLAYORDER=
